<!-- <svg xmlns="http://www.w3.org/2000/svg" viewBox="0 0 24 24"><g fill='#FFFFFF'>
<g>
	<path d="M12,3l-9.5,9.5c-0.3,0.3-0.3,0.7,0,1l0,0c0.3,0.3,0.7,0.3,1,0L12,5c0,0,8.5,8.5,8.5,8.5c0.3,0.3,0.7,0.3,1,0v0
		c0.3-0.3,0.3-0.7,0-1L12,3z"></path>
	<path d="M12,6l-7,7v8h5v-4c0-1.1,0.9-2,2-2s2,0.9,2,2v4h5v-8L12,6z"></path>
</g>
</g></svg> -->

<svg  stroke-width="2.07" viewBox="0 0 24 24" fill="#FFFFFF" xmlns="http://www.w3.org/2000/svg" color="#000000"><path d="M17 21H7a4 4 0 01-4-4v-6.292a4 4 0 011.927-3.421l5-3.03a4 4 0 014.146 0l5 3.03A4 4 0 0121 10.707V17a4 4 0 01-4 4zM9 17h6" stroke="#000000" stroke-width="2.07" stroke-linecap="round" stroke-linejoin="round"></path></svg>